<svg xmlns="http://www.w3.org/2000/svg" width="256" height="256" viewBox="0 0 256 256"><rect width="256" height="256" fill="#ad8258"/><g transform="rotate(-12 128 128)"><polyline points="-10,-4.73 -2,-3.86 6,-3.00 14,-2.17 22,-1.36 30,-0.61 38,0.10 46,0.74 54,1.31 62,1.81 70,2.22 78,2.55 86,2.79 94,2.94 102,3.01 110,2.99 118,2.89 126,2.71 134,2.46 142,2.14 150,1.77 158,1.35 166,0.89 174,0.40 182,-0.11 190,-0.63 198,-1.15 206,-1.66 214,-2.16 222,-2.64 230,-3.09 238,-3.50 246,-3.88 254,-4.22 262,-4.51 270,-4.76" fill="none" stroke="#66472e" stroke-width="1.11" opacity="0.48"/><polyline points="-10,9.35 -2,8.99 6,8.55 14,8.04 22,7.44 30,6.79 38,6.08 46,5.33 54,4.54 62,3.73 70,2.91 78,2.09 86,1.28 94,0.49 102,-0.27 110,-0.99 118,-1.66 126,-2.28 134,-2.83 142,-3.31 150,-3.73 158,-4.07 166,-4.34 174,-4.54 182,-4.67 190,-4.73 198,-4.73 206,-4.66 214,-4.55 222,-4.40 230,-4.20 238,-3.98 246,-3.74 254,-3.49 262,-3.23 270,-2.97" fill="none" stroke="#66472e" stroke-width="1.21" opacity="0.19"/><polyline points="-10,3.33 -2,4.14 6,4.98 14,5.84 22,6.71 30,7.57 38,8.42 46,9.25 54,10.03 62,10.78 70,11.46 78,12.09 86,12.64 94,13.12 102,13.52 110,13.84 118,14.08 126,14.23 134,14.30 142,14.29 150,14.21 158,14.06 166,13.84 174,13.57 182,13.26 190,12.90 198,12.51 206,12.10 214,11.68 222,11.25 230,10.83 238,10.42 246,10.03 254,9.66 262,9.32 270,9.02" fill="none" stroke="#66472e" stroke-width="1.60" opacity="0.29"/><polyline points="-10,16.03 -2,15.20 6,14.35 14,13.48 22,12.61 30,11.75 38,10.91 46,10.11 54,9.35 62,8.64 70,7.99 78,7.41 86,6.90 94,6.47 102,6.12 110,5.86 118,5.68 126,5.58 134,5.57 142,5.63 150,5.76 158,5.96 166,6.22 174,6.54 182,6.89 190,7.28 198,7.70 206,8.13 214,8.58 222,9.02 230,9.45 238,9.87 246,10.26 254,10.63 262,10.96 270,11.26" fill="none" stroke="#66472e" stroke-width="1.19" opacity="0.26"/><polyline points="-10,20.61 -2,19.74 6,18.87 14,18.00 22,17.15 30,16.32 38,15.53 46,14.78 54,14.09 62,13.47 70,12.91 78,12.43 86,12.04 94,11.72 102,11.49 110,11.35 118,11.30 126,11.32 134,11.43 142,11.60 150,11.84 158,12.15 166,12.50 174,12.90 182,13.33 190,13.78 198,14.26 206,14.73 214,15.21 222,15.67 230,16.12 238,16.55 246,16.94 254,17.30 262,17.62 270,17.90" fill="none" stroke="#66472e" stroke-width="0.42" opacity="0.24"/><polyline points="-10,33.73 -2,33.49 6,33.15 14,32.73 22,32.24 30,31.67 38,31.03 46,30.34 54,29.61 62,28.84 70,28.04 78,27.23 86,26.43 94,25.63 102,24.85 110,24.09 118,23.38 126,22.72 134,22.10 142,21.55 150,21.07 158,20.65 166,20.30 174,20.02 182,19.82 190,19.68 198,19.60 206,19.59 214,19.64 222,19.73 230,19.86 238,20.03 246,20.23 254,20.45 262,20.67 270,20.91" fill="none" stroke="#66472e" stroke-width="1.71" opacity="0.35"/><polyline points="-10,38.94 -2,39.32 6,39.61 14,39.81 22,39.91 30,39.93 38,39.84 46,39.67 54,39.41 62,39.06 70,38.64 78,38.15 86,37.59 94,36.99 102,36.34 110,35.66 118,34.95 126,34.24 134,33.53 142,32.82 150,32.13 158,31.48 166,30.85 174,30.27 182,29.74 190,29.26 198,28.84 206,28.48 214,28.17 222,27.93 230,27.74 238,27.61 246,27.53 254,27.49 262,27.49 270,27.53" fill="none" stroke="#66472e" stroke-width="1.15" opacity="0.20"/><polyline points="-10,37.67 -2,38.54 6,39.39 14,40.22 22,41.00 30,41.74 38,42.42 46,43.04 54,43.58 62,44.04 70,44.42 78,44.72 86,44.92 94,45.04 102,45.07 110,45.02 118,44.88 126,44.67 134,44.39 142,44.05 150,43.65 158,43.21 166,42.73 174,42.22 182,41.70 190,41.17 198,40.64 206,40.12 214,39.62 222,39.14 230,38.69 238,38.28 246,37.91 254,37.58 262,37.30 270,37.06" fill="none" stroke="#66472e" stroke-width="1.20" opacity="0.46"/><polyline points="-10,48.65 -2,47.95 6,47.20 14,46.41 22,45.58 30,44.73 38,43.87 46,43.02 54,42.17 62,41.35 70,40.57 78,39.83 86,39.14 94,38.51 102,37.95 110,37.46 118,37.05 126,36.72 134,36.46 142,36.29 150,36.20 158,36.18 166,36.23 174,36.34 182,36.52 190,36.75 198,37.02 206,37.33 214,37.67 222,38.03 230,38.39 238,38.76 246,39.13 254,39.48 262,39.81 270,40.12" fill="none" stroke="#66472e" stroke-width="0.81" opacity="0.23"/><polyline points="-10,42.23 -2,42.83 6,43.49 14,44.21 22,44.98 30,45.79 38,46.62 46,47.46 54,48.31 62,49.15 70,49.97 78,50.77 86,51.52 94,52.22 102,52.87 110,53.45 118,53.97 126,54.41 134,54.78 142,55.07 150,55.28 158,55.41 166,55.47 174,55.46 182,55.39 190,55.25 198,55.07 206,54.84 214,54.57 222,54.27 230,53.96 238,53.63 246,53.29 254,52.97 262,52.65 270,52.35" fill="none" stroke="#66472e" stroke-width="0.58" opacity="0.44"/><polyline points="-10,63.64 -2,63.85 6,63.96 14,63.98 22,63.91 30,63.74 38,63.49 46,63.15 54,62.72 62,62.23 70,61.67 78,61.05 86,60.38 94,59.68 102,58.96 110,58.22 118,57.47 126,56.73 134,56.01 142,55.31 150,54.64 158,54.02 166,53.45 174,52.93 182,52.46 190,52.06 198,51.72 206,51.45 214,51.23 222,51.08 230,50.98 238,50.93 246,50.93 254,50.97 262,51.04 270,51.14" fill="none" stroke="#66472e" stroke-width="1.20" opacity="0.46"/><polyline points="-10,68.99 -2,68.56 6,68.04 14,67.46 22,66.81 30,66.10 38,65.35 46,64.56 54,63.75 62,62.92 70,62.09 78,61.27 86,60.46 94,59.69 102,58.95 110,58.26 118,57.63 126,57.06 134,56.56 142,56.12 150,55.76 158,55.48 166,55.26 174,55.12 182,55.05 190,55.05 198,55.11 206,55.22 214,55.38 222,55.58 230,55.81 238,56.06 246,56.33 254,56.61 262,56.89 270,57.17" fill="none" stroke="#66472e" stroke-width="1.38" opacity="0.22"/><polyline points="-10,58.45 -2,58.21 6,58.07 14,58.02 22,58.06 30,58.20 38,58.43 46,58.75 54,59.15 62,59.62 70,60.17 78,60.77 86,61.41 94,62.10 102,62.82 110,63.55 118,64.29 126,65.03 134,65.76 142,66.46 150,67.13 158,67.76 166,68.34 174,68.87 182,69.35 190,69.76 198,70.11 206,70.40 214,70.63 222,70.80 230,70.91 238,70.98 246,70.99 254,70.96 262,70.90 270,70.81" fill="none" stroke="#66472e" stroke-width="1.31" opacity="0.37"/><polyline points="-10,64.78 -2,64.46 6,64.22 14,64.09 22,64.04 30,64.09 38,64.24 46,64.47 54,64.79 62,65.19 70,65.67 78,66.21 86,66.80 94,67.45 102,68.12 110,68.83 118,69.55 126,70.28 134,71.00 142,71.70 150,72.39 158,73.04 166,73.64 174,74.21 182,74.72 190,75.17 198,75.56 206,75.90 214,76.17 222,76.39 230,76.54 238,76.65 246,76.70 254,76.71 262,76.68 270,76.63" fill="none" stroke="#66472e" stroke-width="0.70" opacity="0.15"/><polyline points="-10,87.77 -2,87.54 6,87.22 14,86.82 22,86.33 30,85.77 38,85.15 46,84.47 54,83.74 62,82.98 70,82.19 78,81.39 86,80.58 94,79.78 102,79.00 110,78.24 118,77.52 126,76.85 134,76.23 142,75.67 150,75.18 158,74.75 166,74.39 174,74.11 182,73.89 190,73.74 198,73.66 206,73.63 214,73.67 222,73.75 230,73.88 238,74.04 246,74.23 254,74.44 262,74.67 270,74.89" fill="none" stroke="#66472e" stroke-width="1.32" opacity="0.43"/><polyline points="-10,81.21 -2,80.43 6,79.71 14,79.03 22,78.43 30,77.90 38,77.45 46,77.08 54,76.80 62,76.62 70,76.52 78,76.52 86,76.60 94,76.77 102,77.02 110,77.34 118,77.73 126,78.18 134,78.68 142,79.22 150,79.79 158,80.38 166,80.98 174,81.58 182,82.18 190,82.75 198,83.31 206,83.83 214,84.31 222,84.76 230,85.15 238,85.50 246,85.80 254,86.05 262,86.25 270,86.41" fill="none" stroke="#66472e" stroke-width="1.31" opacity="0.41"/><polyline points="-10,89.78 -2,88.92 6,88.08 14,87.28 22,86.52 30,85.81 38,85.16 46,84.58 54,84.08 62,83.66 70,83.33 78,83.08 86,82.92 94,82.85 102,82.87 110,82.97 118,83.15 126,83.41 134,83.73 142,84.11 150,84.54 158,85.01 166,85.52 174,86.04 182,86.58 190,87.13 198,87.67 206,88.19 214,88.69 222,89.17 230,89.61 238,90.02 246,90.38 254,90.70 262,90.97 270,91.20" fill="none" stroke="#66472e" stroke-width="0.84" opacity="0.19"/><polyline points="-10,104.48 -2,104.93 6,105.30 14,105.59 22,105.78 30,105.88 38,105.88 46,105.79 54,105.61 62,105.34 70,105.00 78,104.57 86,104.08 94,103.53 102,102.93 110,102.29 118,101.62 126,100.93 134,100.23 142,99.53 150,98.84 158,98.18 166,97.54 174,96.94 182,96.38 190,95.88 198,95.42 206,95.02 214,94.68 222,94.39 230,94.17 238,93.99 246,93.87 254,93.80 262,93.77 270,93.77" fill="none" stroke="#66472e" stroke-width="1.63" opacity="0.20"/><polyline points="-10,111.45 -2,111.13 6,110.71 14,110.21 22,109.65 30,109.01 38,108.32 46,107.58 54,106.80 62,106.00 70,105.18 78,104.37 86,103.55 94,102.76 102,101.99 110,101.27 118,100.58 126,99.96 134,99.39 142,98.89 150,98.45 158,98.09 166,97.80 174,97.58 182,97.44 190,97.36 198,97.34 206,97.39 214,97.48 222,97.62 230,97.80 238,98.01 246,98.24 254,98.49 262,98.74 270,98.99" fill="none" stroke="#66472e" stroke-width="0.80" opacity="0.15"/><polyline points="-10,117.67 -2,117.41 6,117.05 14,116.62 22,116.10 30,115.52 38,114.87 46,114.16 54,113.42 62,112.64 70,111.84 78,111.03 86,110.22 94,109.42 102,108.64 110,107.89 118,107.19 126,106.53 134,105.93 142,105.39 150,104.92 158,104.51 166,104.18 174,103.91 182,103.72 190,103.60 198,103.54 206,103.54 214,103.59 222,103.70 230,103.84 238,104.02 246,104.23 254,104.45 262,104.69 270,104.92" fill="none" stroke="#66472e" stroke-width="0.47" opacity="0.24"/><polyline points="-10,106.46 -2,106.76 6,107.15 14,107.63 22,108.18 30,108.79 38,109.47 46,110.19 54,110.96 62,111.75 70,112.56 78,113.38 86,114.19 94,114.99 102,115.76 110,116.50 118,117.19 126,117.83 134,118.41 142,118.92 150,119.37 158,119.75 166,120.06 174,120.29 182,120.46 190,120.55 198,120.59 206,120.56 214,120.48 222,120.35 230,120.19 238,119.99 246,119.77 254,119.53 262,119.28 270,119.04" fill="none" stroke="#66472e" stroke-width="1.01" opacity="0.39"/><polyline points="-10,123.56 -2,124.38 6,125.17 14,125.92 22,126.61 30,127.23 38,127.79 46,128.26 54,128.65 62,128.96 70,129.17 78,129.30 86,129.33 94,129.28 102,129.14 110,128.93 118,128.64 126,128.28 134,127.86 142,127.40 150,126.89 158,126.35 166,125.79 174,125.22 182,124.65 190,124.08 198,123.53 206,123.00 214,122.50 222,122.03 230,121.61 238,121.23 246,120.90 254,120.61 262,120.37 270,120.18" fill="none" stroke="#66472e" stroke-width="0.41" opacity="0.46"/><polyline points="-10,128.65 -2,129.50 6,130.32 14,131.11 22,131.85 30,132.53 38,133.15 46,133.70 54,134.17 62,134.55 70,134.85 78,135.06 86,135.18 94,135.21 102,135.15 110,135.02 118,134.80 126,134.51 134,134.16 142,133.75 150,133.30 158,132.80 166,132.28 174,131.74 182,131.19 190,130.63 198,130.09 206,129.56 214,129.06 222,128.58 230,128.15 238,127.75 246,127.39 254,127.09 262,126.82 270,126.61" fill="none" stroke="#66472e" stroke-width="1.07" opacity="0.25"/><polyline points="-10,129.02 -2,129.82 6,130.65 14,131.50 22,132.37 30,133.23 38,134.09 46,134.92 54,135.72 62,136.48 70,137.18 78,137.83 86,138.41 94,138.91 102,139.33 110,139.68 118,139.94 126,140.12 134,140.22 142,140.24 150,140.18 158,140.05 166,139.86 174,139.61 182,139.31 190,138.97 198,138.60 206,138.21 214,137.79 222,137.38 230,136.96 238,136.55 246,136.16 254,135.80 262,135.46 270,135.16" fill="none" stroke="#66472e" stroke-width="1.46" opacity="0.28"/><polyline points="-10,137.75 -2,136.89 6,136.05 14,135.25 22,134.49 30,133.78 38,133.14 46,132.56 54,132.06 62,131.64 70,131.31 78,131.07 86,130.91 94,130.85 102,130.87 110,130.97 118,131.16 126,131.41 134,131.74 142,132.12 150,132.55 158,133.02 166,133.53 174,134.06 182,134.60 190,135.14 198,135.68 206,136.21 214,136.71 222,137.19 230,137.63 238,138.03 246,138.40 254,138.71 262,138.98 270,139.21" fill="none" stroke="#66472e" stroke-width="0.81" opacity="0.41"/><polyline points="-10,136.01 -2,136.02 6,136.12 14,136.31 22,136.59 30,136.96 38,137.41 46,137.94 54,138.53 62,139.18 70,139.87 78,140.60 86,141.36 94,142.14 102,142.91 110,143.69 118,144.44 126,145.17 134,145.87 142,146.52 150,147.12 158,147.66 166,148.15 174,148.57 182,148.92 190,149.21 198,149.43 206,149.59 214,149.68 222,149.72 230,149.71 238,149.65 246,149.56 254,149.43 262,149.28 270,149.11" fill="none" stroke="#66472e" stroke-width="1.65" opacity="0.34"/><polyline points="-10,148.87 -2,148.03 6,147.22 14,146.45 22,145.74 30,145.09 38,144.50 46,143.99 54,143.56 62,143.22 70,142.97 78,142.80 86,142.73 94,142.74 102,142.84 110,143.02 118,143.28 126,143.60 134,143.99 142,144.43 150,144.91 158,145.43 166,145.97 174,146.53 182,147.10 190,147.66 198,148.21 206,148.74 214,149.24 222,149.71 230,150.14 238,150.53 246,150.87 254,151.17 262,151.42 270,151.62" fill="none" stroke="#66472e" stroke-width="0.98" opacity="0.50"/><polyline points="-10,148.63 -2,148.98 6,149.41 14,149.93 22,150.51 30,151.16 38,151.87 46,152.62 54,153.40 62,154.21 70,155.03 78,155.85 86,156.66 94,157.45 102,158.21 110,158.94 118,159.61 126,160.23 134,160.78 142,161.27 150,161.69 158,162.04 166,162.31 174,162.51 182,162.65 190,162.71 198,162.71 206,162.65 214,162.55 222,162.39 230,162.20 238,161.98 246,161.74 254,161.49 262,161.23 270,160.98" fill="none" stroke="#66472e" stroke-width="1.73" opacity="0.23"/><polyline points="-10,167.29 -2,168.04 6,168.74 14,169.37 22,169.94 30,170.42 38,170.83 46,171.14 54,171.37 62,171.51 70,171.55 78,171.50 86,171.37 94,171.15 102,170.86 110,170.49 118,170.06 126,169.58 134,169.05 142,168.48 150,167.89 158,167.28 166,166.67 174,166.06 182,165.46 190,164.88 198,164.33 206,163.81 214,163.34 222,162.91 230,162.52 238,162.19 246,161.91 254,161.68 262,161.49 270,161.35" fill="none" stroke="#66472e" stroke-width="0.82" opacity="0.34"/><polyline points="-10,166.03 -2,165.22 6,164.44 14,163.72 22,163.06 30,162.46 38,161.94 46,161.50 54,161.15 62,160.88 70,160.71 78,160.62 86,160.63 94,160.72 102,160.89 110,161.14 118,161.47 126,161.86 134,162.30 142,162.79 150,163.32 158,163.88 166,164.45 174,165.03 182,165.62 190,166.19 198,166.74 206,167.27 214,167.77 222,168.23 230,168.64 238,169.01 246,169.33 254,169.61 262,169.84 270,170.02" fill="none" stroke="#66472e" stroke-width="0.66" opacity="0.15"/><polyline points="-10,166.38 -2,166.66 6,167.03 14,167.49 22,168.02 30,168.61 38,169.28 46,169.99 54,170.74 62,171.53 70,172.33 78,173.15 86,173.96 94,174.76 102,175.53 110,176.27 118,176.97 126,177.62 134,178.22 142,178.75 150,179.21 158,179.60 166,179.93 174,180.18 182,180.36 190,180.47 198,180.52 206,180.51 214,180.44 222,180.33 230,180.17 238,179.98 246,179.77 254,179.54 262,179.30 270,179.06" fill="none" stroke="#66472e" stroke-width="0.49" opacity="0.19"/><polyline points="-10,183.48 -2,182.64 6,181.77 14,180.90 22,180.03 30,179.18 38,178.36 46,177.58 54,176.84 62,176.16 70,175.55 78,175.01 86,174.54 94,174.15 102,173.85 110,173.64 118,173.50 126,173.45 134,173.49 142,173.59 150,173.77 158,174.01 166,174.31 174,174.66 182,175.04 190,175.46 198,175.90 206,176.35 214,176.81 222,177.26 230,177.70 238,178.12 246,178.52 254,178.89 262,179.22 270,179.51" fill="none" stroke="#66472e" stroke-width="1.54" opacity="0.48"/><polyline points="-10,194.59 -2,195.03 6,195.38 14,195.65 22,195.82 30,195.90 38,195.88 46,195.77 54,195.57 62,195.29 70,194.92 78,194.48 86,193.97 94,193.41 102,192.80 110,192.15 118,191.47 126,190.77 134,190.07 142,189.37 150,188.68 158,188.02 166,187.38 174,186.79 182,186.24 190,185.73 198,185.29 206,184.89 214,184.56 222,184.28 230,184.07 238,183.90 246,183.79 254,183.73 262,183.70 270,183.71" fill="none" stroke="#66472e" stroke-width="0.80" opacity="0.19"/><polyline points="-10,189.13 -2,189.93 6,190.77 14,191.62 22,192.49 30,193.35 38,194.21 46,195.04 54,195.83 62,196.58 70,197.28 78,197.92 86,198.49 94,198.99 102,199.40 110,199.74 118,199.99 126,200.16 134,200.25 142,200.26 150,200.19 158,200.06 166,199.86 174,199.60 182,199.29 190,198.95 198,198.57 206,198.17 214,197.75 222,197.33 230,196.91 238,196.51 246,196.12 254,195.75 262,195.41 270,195.11" fill="none" stroke="#66472e" stroke-width="1.18" opacity="0.28"/><polyline points="-10,198.31 -2,197.44 6,196.59 14,195.77 22,194.98 30,194.25 38,193.57 46,192.95 54,192.41 62,191.95 70,191.57 78,191.28 86,191.07 94,190.96 102,190.93 110,190.98 118,191.12 126,191.33 134,191.61 142,191.96 150,192.36 158,192.80 166,193.28 174,193.79 182,194.31 190,194.84 198,195.37 206,195.89 214,196.39 222,196.87 230,197.32 238,197.73 246,198.10 254,198.43 262,198.71 270,198.95" fill="none" stroke="#66472e" stroke-width="0.50" opacity="0.32"/><polyline points="-10,212.35 -2,211.82 6,211.22 14,210.55 22,209.83 30,209.06 38,208.26 46,207.43 54,206.59 62,205.75 70,204.92 78,204.11 86,203.33 94,202.59 102,201.90 110,201.26 118,200.69 126,200.19 134,199.76 142,199.41 150,199.13 158,198.93 166,198.80 174,198.75 182,198.76 190,198.83 198,198.96 206,199.15 214,199.37 222,199.62 230,199.91 238,200.20 246,200.51 254,200.82 262,201.12 270,201.41" fill="none" stroke="#66472e" stroke-width="1.58" opacity="0.13"/><polyline points="-10,211.34 -2,210.47 6,209.61 14,208.76 22,207.93 30,207.15 38,206.41 46,205.73 54,205.12 62,204.58 70,204.12 78,203.74 86,203.44 94,203.24 102,203.12 110,203.08 118,203.14 126,203.26 134,203.47 142,203.74 150,204.07 158,204.45 166,204.88 174,205.34 182,205.83 190,206.33 198,206.84 206,207.34 214,207.84 222,208.31 230,208.76 238,209.18 246,209.57 254,209.91 262,210.21 270,210.48" fill="none" stroke="#66472e" stroke-width="1.33" opacity="0.47"/><polyline points="-10,210.47 -2,209.89 6,209.39 14,208.98 22,208.64 30,208.40 38,208.26 46,208.20 54,208.24 62,208.37 70,208.59 78,208.89 86,209.26 94,209.71 102,210.22 110,210.78 118,211.38 126,212.01 134,212.67 142,213.34 150,214.01 158,214.67 166,215.32 174,215.94 182,216.53 190,217.08 198,217.58 206,218.03 214,218.43 222,218.78 230,219.06 238,219.30 246,219.48 254,219.61 262,219.70 270,219.75" fill="none" stroke="#66472e" stroke-width="0.46" opacity="0.24"/><polyline points="-10,226.65 -2,227.43 6,228.17 14,228.85 22,229.46 30,230.01 38,230.47 46,230.85 54,231.14 62,231.34 70,231.45 78,231.47 86,231.40 94,231.24 102,231.01 110,230.70 118,230.32 126,229.88 134,229.39 142,228.86 150,228.30 158,227.71 166,227.12 174,226.52 182,225.92 190,225.35 198,224.79 206,224.27 214,223.78 222,223.34 230,222.94 238,222.58 246,222.28 254,222.03 262,221.82 270,221.66" fill="none" stroke="#66472e" stroke-width="0.85" opacity="0.32"/><polyline points="-10,230.69 -2,231.54 6,232.36 14,233.14 22,233.88 30,234.57 38,235.18 46,235.73 54,236.19 62,236.57 70,236.87 78,237.07 86,237.19 94,237.22 102,237.16 110,237.01 118,236.80 126,236.50 134,236.15 142,235.74 150,235.28 158,234.79 166,234.26 174,233.72 182,233.16 190,232.61 198,232.06 206,231.54 214,231.03 222,230.56 230,230.12 238,229.73 246,229.37 254,229.06 262,228.80 270,228.59" fill="none" stroke="#66472e" stroke-width="1.34" opacity="0.25"/><polyline points="-10,240.99 -2,241.62 6,242.17 14,242.65 22,243.05 30,243.36 38,243.58 46,243.71 54,243.74 62,243.68 70,243.53 78,243.30 86,242.98 94,242.60 102,242.14 110,241.63 118,241.07 126,240.47 134,239.84 142,239.19 150,238.53 158,237.88 166,237.24 174,236.61 182,236.02 190,235.45 198,234.93 206,234.46 214,234.04 222,233.66 230,233.35 238,233.08 246,232.87 254,232.71 262,232.60 270,232.52" fill="none" stroke="#66472e" stroke-width="1.52" opacity="0.44"/><polyline points="-10,246.73 -2,246.04 6,245.29 14,244.50 22,243.68 30,242.83 38,241.97 46,241.12 54,240.27 62,239.45 70,238.66 78,237.92 86,237.23 94,236.59 102,236.02 110,235.53 118,235.11 126,234.77 134,234.51 142,234.33 150,234.22 158,234.20 166,234.24 174,234.35 182,234.52 190,234.74 198,235.01 206,235.32 214,235.65 222,236.00 230,236.37 238,236.73 246,237.10 254,237.45 262,237.78 270,238.09" fill="none" stroke="#66472e" stroke-width="0.86" opacity="0.46"/><polyline points="-10,238.55 -2,238.29 6,238.11 14,238.03 22,238.05 30,238.16 38,238.36 46,238.64 54,239.02 62,239.47 70,239.98 78,240.56 86,241.19 94,241.87 102,242.57 110,243.30 118,244.03 126,244.77 134,245.49 142,246.19 150,246.87 158,247.51 166,248.10 174,248.64 182,249.13 190,249.56 198,249.93 206,250.23 214,250.48 222,250.66 230,250.79 238,250.87 246,250.89 254,250.88 262,250.83 270,250.75" fill="none" stroke="#66472e" stroke-width="0.85" opacity="0.27"/><polyline points="-10,245.19 -2,245.65 6,246.19 14,246.80 22,247.47 30,248.20 38,248.97 46,249.77 54,250.59 62,251.43 70,252.26 78,253.08 86,253.88 94,254.64 102,255.37 110,256.04 118,256.66 126,257.21 134,257.69 142,258.10 150,258.44 158,258.70 166,258.89 174,259.00 182,259.05 190,259.03 198,258.95 206,258.82 214,258.64 222,258.42 230,258.17 238,257.90 246,257.62 254,257.33 262,257.05 270,256.77" fill="none" stroke="#66472e" stroke-width="1.68" opacity="0.28"/><polyline points="-10,265.99 -2,266.51 6,266.95 14,267.31 22,267.58 30,267.75 38,267.84 46,267.83 54,267.72 62,267.53 70,267.25 78,266.89 86,266.46 94,265.97 102,265.42 110,264.82 118,264.18 126,263.52 134,262.84 142,262.16 150,261.48 158,260.81 166,260.17 174,259.55 182,258.98 190,258.44 198,257.96 206,257.53 214,257.16 222,256.84 230,256.58 238,256.37 246,256.21 254,256.11 262,256.05 270,256.02" fill="none" stroke="#66472e" stroke-width="0.54" opacity="0.44"/></g></svg>